<?xml version="1.0" standalone="no"?>
<!DOCTYPE svg PUBLIC "-//W3C//DTD SVG 20010904//EN"
 "http://www.w3.org/TR/2001/REC-SVG-20010904/DTD/svg10.dtd">
<svg version="1.0" xmlns="http://www.w3.org/2000/svg"
 width="1080.000000pt" height="1080.000000pt" viewBox="0 0 1080.000000 1080.000000"
 preserveAspectRatio="xMidYMid meet">

<g transform="translate(0.000000,1080.000000) scale(0.100000,-0.100000)"
fill="#000000" stroke="none">
<path d="M6010 7549 c-244 -17 -462 -41 -510 -55 -75 -22 -403 -278 -574 -448
-71 -71 -72 -72 -165 -291 -51 -121 -135 -307 -187 -413 -83 -173 -100 -222
-74 -222 4 0 31 15 59 34 53 36 134 70 192 81 31 6 44 22 158 197 144 220 184
270 266 334 135 104 441 228 565 228 75 0 112 -16 169 -73 58 -58 86 -124 86
-202 0 -107 -13 -119 -288 -254 -256 -125 -358 -187 -434 -263 -87 -87 -128
-206 -84 -246 50 -46 146 -29 311 55 82 42 156 70 260 98 201 56 400 125 495
173 68 35 101 62 220 182 154 154 271 291 342 397 47 70 73 85 92 52 6 -12 4
-28 -10 -55 l-19 -38 340 0 340 0 0 370 0 370 -717 -1 c-395 -1 -770 -5 -833
-10z"/>
<path d="M5226 7440 c-27 -11 -65 -34 -84 -52 -35 -34 -66 -83 -60 -97 2 -5
52 32 111 80 60 49 102 89 95 89 -7 -1 -35 -10 -62 -20z"/>
<path d="M5748 6900 c13 -22 14 -34 6 -47 -18 -28 -30 -26 -71 17 l-39 42 -77
-27 c-43 -14 -112 -42 -153 -61 l-75 -34 21 -30 c26 -36 74 -74 115 -90 68
-27 209 -10 378 46 88 29 88 29 40 112 -27 47 -102 102 -139 102 -23 0 -23 -1
-6 -30z"/>
<path d="M4673 6086 c-184 -45 -340 -198 -389 -381 -18 -67 -18 -197 1 -270
51 -194 222 -352 416 -385 263 -45 511 102 595 352 19 55 24 91 24 169 0 157
-46 266 -156 376 -129 127 -319 180 -491 139z m307 -50 c187 -76 314 -263 314
-461 0 -234 -153 -431 -379 -490 -251 -65 -525 92 -599 344 -23 78 -21 213 4
293 40 129 135 239 256 298 87 42 126 50 239 46 80 -3 113 -8 165 -30z"/>
<path d="M4678 6039 c-62 -14 -157 -67 -209 -116 -104 -97 -152 -208 -152
-353 0 -72 5 -109 22 -154 101 -280 410 -405 678 -275 73 36 177 144 214 224
124 263 -10 571 -288 664 -67 22 -193 27 -265 10z m350 -134 c-10 -23 -16 -25
-84 -25 l-74 0 10 -26 c6 -14 10 -36 10 -50 0 -23 3 -24 60 -24 63 0 68 -4 46
-32 -10 -13 -28 -18 -67 -18 -50 0 -56 -2 -73 -30 -24 -42 -79 -76 -150 -94
-32 -9 -61 -17 -62 -19 -2 -2 64 -96 146 -210 83 -114 150 -212 150 -217 0 -6
-19 -10 -42 -10 l-43 0 -152 205 c-124 167 -153 212 -153 239 0 32 1 33 67 45
85 16 163 55 163 83 0 4 -66 8 -146 8 l-146 0 14 23 c15 21 23 22 157 25 140
3 141 3 141 26 0 13 -12 35 -26 50 -26 25 -31 26 -140 26 l-114 0 12 25 11 25
248 0 249 0 -12 -25z"/>
<path d="M3240 4110 l0 -870 1630 0 1630 0 -2 868 -3 867 -1627 3 -1628 2 0
-870z m2157 748 c6 -7 15 -32 20 -55 20 -78 59 -74 -577 -71 l-565 3 2 46 c0
26 6 56 12 68 12 21 12 21 555 21 423 0 546 -3 553 -12z"/>
</g>
</svg>
