<?xml version="1.0" standalone="no"?>
<!DOCTYPE svg PUBLIC "-//W3C//DTD SVG 20010904//EN"
 "http://www.w3.org/TR/2001/REC-SVG-20010904/DTD/svg10.dtd">
<svg version="1.0" xmlns="http://www.w3.org/2000/svg"
 width="512.000000pt" height="512.000000pt" viewBox="0 0 512.000000 512.000000"
 preserveAspectRatio="xMidYMid meet">

<g transform="translate(0.000000,512.000000) scale(0.100000,-0.100000)"
fill="#000000" stroke="none">
<path d="M1010 4789 c-89 -15 -214 -63 -295 -114 -182 -113 -300 -270 -367
-488 -22 -72 -22 -76 -26 -977 l-3 -905 483 482 c523 522 503 505 596 488 33
-6 119 -88 752 -721 l715 -714 355 354 c330 330 358 355 397 361 88 14 79 22
651 -548 l532 -532 0 1280 c0 840 -4 1302 -11 1345 -34 217 -165 425 -343 549
-84 58 -152 90 -259 124 l-72 22 -1525 1 c-884 1 -1548 -2 -1580 -7z m2696
-640 c96 -17 213 -79 286 -152 112 -112 163 -235 163 -397 0 -160 -51 -285
-161 -394 -109 -110 -234 -161 -394 -161 -162 0 -281 49 -395 162 -270 267
-194 723 147 891 119 59 226 74 354 51z"/>
<path d="M837 2372 l-517 -517 0 -385 c0 -219 5 -413 11 -450 56 -349 340
-633 689 -689 43 -7 550 -11 1490 -11 l1425 0 -1285 1285 c-707 707 -1287
1285 -1290 1285 -3 0 -238 -233 -523 -518z"/>
<path d="M3367 1892 l-277 -277 609 -609 610 -610 43 20 c23 10 69 39 102 63
162 119 277 293 322 489 l15 66 -568 568 c-312 312 -570 568 -573 568 -3 0
-130 -125 -283 -278z"/>
</g>
</svg>
